<?xml version="1.0" encoding="UTF-8"?>
<svg id="Layer_1" data-name="Layer 1" xmlns="http://www.w3.org/2000/svg" xmlns:xlink="http://www.w3.org/1999/xlink" viewBox="0 0 931.55 87.55">
  <defs>
    <style>
      .cls-1, .cls-2 {
        fill: none;
      }

      .cls-3 {
        font-family: Arial-BoldMT, Arial;
        font-size: 68.54px;
        font-weight: 700;
      }

      .cls-3, .cls-4 {
        fill: #001489;
      }

      .cls-5 {
        fill: #fff;
      }

      .cls-6 {
        letter-spacing: -.07em;
      }

      .cls-2 {
        clip-path: url(#clippath);
      }
    </style>
    <clipPath id="clippath">
      <rect class="cls-1" width="243" height="63"/>
    </clipPath>
  </defs>
  <g class="cls-2">
    <g id="Logo">
      <rect class="cls-5" width="243" height="63"/>
      <g id="Logo_mit_Schrift" data-name="Logo mit Schrift">
        <g id="Gruppe_595" data-name="Gruppe 595">
          <path id="Pfad_1" data-name="Pfad 1" class="cls-4" d="m112.96,63h13.81v-30.64h-13.81v30.64Zm13.78-34.86v-13.84h-12.8c-17.05,0-26.34,11.5-33.81,20.75-7.07,8.75-11.8,14.11-19.68,14.11h-3.05v13.84h3.05c14.88,0,23.13-10.23,30.42-19.25,6.76-8.38,12.61-15.61,23.07-15.61h12.8Zm-48.89,0v-13.84c-17.05,0-26.35,11.5-33.81,20.75-7.07,8.75-11.8,14.11-19.68,14.11h-.69V16.79h9.86L16.76,0,0,16.79h9.86v39.29h0v6.92h14.5c14.88,0,23.13-10.23,30.42-19.25,6.76-8.38,12.61-15.61,23.07-15.61"/>
        </g>
        <path id="Pfad_3011" data-name="Pfad 3011" d="m135.97,14.65h1.4v9.79h-1.4v-9.79Zm3.93,0h1.71l4.57,7.62v-7.62h1.4v9.79h-1.71l-4.57-7.64v7.64h-1.4v-9.79Zm12.24,1.32h-3.08v-1.32h7.55v1.32h-3.08v8.48h-1.4v-8.48Zm5.96-1.32h6.04v1.32h-4.64v2.67h4.64v1.32h-4.64v3.17h4.64v1.32h-6.04v-9.79Zm8.17,0h4.2c.86-.05,1.71.21,2.38.75.58.52.9,1.28.86,2.06.04.75-.25,1.48-.78,2.01-.6.53-1.37.82-2.17.82l3.23,4.16h-1.75l-3.22-4.17h-1.36v4.17h-1.4v-9.79Zm4.2,4.35c.48.03.96-.11,1.34-.4.33-.29.5-.71.48-1.14.02-.42-.15-.83-.48-1.1-.39-.28-.86-.42-1.34-.39h-2.8v3.03h2.8Zm5.34-4.35h1.7l4.57,7.62v-7.62h1.4v9.79h-1.71l-4.57-7.64v7.64h-1.4v-9.79Zm12.88,0h1.89l3.73,9.79h-1.54l-1.05-2.85h-4.2l-1.04,2.85h-1.52l3.74-9.79Zm2.57,5.66l-1.64-4.45-1.64,4.45h3.27Zm5.64-4.35h-3.08v-1.32h7.55v1.32h-3.08v8.48h-1.4v-8.48Zm5.96-1.32h1.4v9.8h-1.4v-9.8Zm7.89,9.99c-.81.02-1.61-.19-2.31-.59-.68-.41-1.22-1.01-1.54-1.73-.39-.87-.58-1.82-.55-2.77-.03-.95.16-1.9.55-2.77.33-.72.87-1.32,1.55-1.73.7-.4,1.5-.6,2.31-.59.81-.02,1.6.18,2.3.59.67.41,1.21,1.02,1.54,1.73.39.87.58,1.82.55,2.77.03.95-.16,1.9-.55,2.77-.33.72-.86,1.32-1.54,1.73-.7.4-1.49.61-2.3.59h0Zm-2.97-5.09c-.07,1,.21,2,.8,2.82.53.64,1.33,1,2.16.97.83.03,1.62-.33,2.15-.97.59-.82.87-1.81.8-2.82.07-1-.21-2-.8-2.82-.52-.64-1.32-1-2.15-.97-.83-.03-1.63.33-2.16.97-.59.82-.87,1.81-.8,2.82Zm9.43-4.9h1.71l4.57,7.62v-7.62h1.4v9.8h-1.71l-4.57-7.64v7.64h-1.4v-9.8Zm12.88,0h1.89l3.74,9.8h-1.54l-1.05-2.86h-4.2l-1.04,2.86h-1.52l3.73-9.8Zm2.57,5.66l-1.64-4.45-1.64,4.45h3.27Zm4.5-5.66h1.4v8.48h4.6v1.32h-6v-9.8Zm-97.95,22.78c-1.02.06-2.02-.24-2.84-.85-.69-.57-1.08-1.44-1.05-2.34h1.45c-.01.55.23,1.08.66,1.42.52.38,1.15.56,1.78.52.57.03,1.14-.14,1.6-.48.39-.31.61-.78.59-1.28,0-.87-.55-1.37-1.66-1.52l-1.28-.18c-.77-.06-1.51-.36-2.1-.86-.48-.47-.73-1.12-.71-1.78-.01-.53.14-1.05.43-1.49.31-.44.73-.78,1.22-.99.58-.24,1.21-.36,1.84-.35.92-.05,1.84.21,2.59.74.63.48.99,1.24.98,2.03h-1.44c0-.45-.23-.87-.6-1.13-.46-.3-.99-.44-1.54-.41-.53-.03-1.05.12-1.48.41-.36.25-.57.66-.56,1.1-.02.37.15.72.43.94.4.27.86.43,1.34.47l1.22.17c.77.07,1.49.38,2.07.89.48.5.74,1.18.7,1.88.01.58-.14,1.14-.45,1.63-.31.48-.74.85-1.26,1.07-.61.26-1.28.39-1.94.38Zm5.66-9.99h4.06c.86-.05,1.71.22,2.39.77.59.54.9,1.32.86,2.11.04.8-.27,1.58-.86,2.13-.67.55-1.52.83-2.39.78h-2.66v4h-1.4v-9.79Zm4,4.49c.5.03.99-.12,1.38-.42.34-.3.52-.74.49-1.19.02-.44-.16-.87-.49-1.15-.4-.3-.89-.44-1.39-.41h-2.6v3.18h2.6Zm7.08-4.49h1.89l3.73,9.79h-1.54l-1.05-2.85h-4.2l-1.05,2.85h-1.52l3.73-9.79Zm2.57,5.66l-1.64-4.45-1.64,4.45h3.27Zm8.14,4.32c-.81.02-1.6-.18-2.31-.57-.68-.4-1.21-1-1.54-1.71-.39-.88-.57-1.83-.55-2.79-.09-1.37.33-2.72,1.17-3.79.83-.9,2.02-1.38,3.25-1.31.95-.04,1.89.28,2.62.88.71.63,1.15,1.5,1.25,2.45h-1.47c-.07-.58-.36-1.11-.81-1.49-.45-.36-1.02-.55-1.59-.54-.84-.04-1.64.3-2.19.94-.59.82-.87,1.83-.79,2.84-.07,1.01.21,2.02.8,2.84.53.64,1.32,1,2.15.96.6.02,1.18-.19,1.63-.59.43-.42.72-.97.8-1.57h1.46c-.13.96-.58,1.85-1.27,2.53-.71.64-1.65.98-2.61.94h0Zm5.69-9.99h6.04v1.32h-4.64v2.67h4.64v1.32h-4.64v3.17h4.64v1.32h-6.04v-9.79Zm-33.15,22.77c-1.02.06-2.02-.24-2.84-.85-.69-.57-1.08-1.44-1.05-2.34h1.45c-.01.55.23,1.08.66,1.42.52.38,1.15.56,1.78.52.57.03,1.14-.14,1.6-.48.39-.31.61-.78.59-1.28,0-.87-.55-1.37-1.66-1.52l-1.28-.18c-.77-.06-1.51-.36-2.1-.86-.48-.47-.74-1.11-.71-1.78-.01-.53.14-1.05.43-1.49.31-.44.73-.78,1.22-.99.58-.24,1.21-.36,1.84-.35.92-.05,1.84.21,2.59.74.63.48,1,1.23.98,2.03h-1.44c0-.45-.23-.87-.6-1.13-.46-.3-.99-.44-1.54-.41-.53-.03-1.05.12-1.48.41-.36.25-.57.66-.56,1.1-.02.37.15.72.43.94.4.27.86.43,1.34.47l1.22.17c.77.07,1.49.38,2.07.89.48.5.74,1.18.7,1.88.01.58-.14,1.14-.45,1.63-.31.48-.75.85-1.27,1.08-.61.26-1.27.39-1.94.38Zm9.52,0c-.81.02-1.6-.18-2.31-.57-.68-.4-1.21-1-1.54-1.71-.39-.88-.57-1.83-.55-2.79-.09-1.37.32-2.72,1.17-3.79.83-.9,2.02-1.38,3.25-1.31.95-.04,1.89.28,2.62.88.71.63,1.15,1.5,1.25,2.45h-1.47c-.07-.58-.36-1.11-.81-1.49-.45-.36-1.02-.55-1.59-.54-.84-.04-1.64.3-2.19.94-.59.82-.87,1.83-.79,2.84-.07,1.01.21,2.02.8,2.84.53.64,1.32,1,2.15.97.6.02,1.18-.19,1.63-.59.43-.42.72-.97.8-1.57h1.45c-.13.96-.58,1.85-1.27,2.52-.71.64-1.65.98-2.61.94Zm5.69-9.99h1.4v9.79h-1.4v-9.79Zm3.93,0h6.04v1.32h-4.64v2.67h4.64v1.31h-4.64v3.17h4.64v1.31h-6.04v-9.79Zm8.17,0h1.71l4.57,7.62v-7.62h1.4v9.79h-1.71l-4.57-7.64v7.64h-1.4v-9.79Zm14.14,9.99c-.81.02-1.6-.18-2.31-.57-.68-.4-1.22-1-1.54-1.71-.39-.88-.57-1.83-.54-2.79-.09-1.37.33-2.72,1.18-3.79.83-.9,2.02-1.38,3.24-1.31.95-.04,1.89.28,2.62.88.71.63,1.15,1.5,1.25,2.45h-1.47c-.07-.58-.36-1.11-.81-1.49-.45-.36-1.02-.55-1.59-.54-.84-.04-1.64.3-2.19.94-.59.82-.87,1.83-.79,2.84-.07,1.01.21,2.02.8,2.84.53.64,1.32,1,2.15.97.6.02,1.18-.19,1.63-.59.43-.42.72-.97.8-1.57h1.46c-.13.96-.58,1.85-1.27,2.52-.71.64-1.65.98-2.61.94h0Zm5.69-9.99h6.04v1.32h-4.64v2.67h4.64v1.31h-4.64v3.17h4.64v1.31h-6.04v-9.79Zm-50.38,12.79h1.4v9.79h-1.4v-9.79Zm3.93,0h1.71l4.57,7.62v-7.62h1.4v9.79h-1.71l-4.57-7.64v7.64h-1.4v-9.79Zm13.43,9.99c-1.02.06-2.02-.24-2.84-.85-.69-.57-1.08-1.44-1.05-2.34h1.44c-.01.55.23,1.08.66,1.42.52.38,1.15.56,1.78.52.57.03,1.14-.14,1.6-.48.39-.31.61-.78.59-1.28,0-.87-.55-1.37-1.66-1.52l-1.29-.18c-.77-.06-1.51-.36-2.1-.86-.48-.47-.73-1.12-.71-1.78-.01-.53.14-1.05.43-1.49.31-.44.73-.78,1.22-.99.58-.24,1.21-.36,1.84-.35.92-.05,1.84.21,2.59.74.63.48,1,1.23.99,2.03h-1.44c0-.45-.23-.87-.6-1.13-.46-.3-.99-.44-1.54-.41-.53-.03-1.05.12-1.48.41-.36.25-.57.66-.56,1.1-.02.37.15.72.43.94.4.27.86.43,1.34.47l1.22.17c.77.07,1.49.38,2.07.89.48.5.74,1.18.7,1.88.01.58-.14,1.14-.44,1.64-.31.48-.75.85-1.27,1.08-.61.26-1.28.39-1.95.38Zm7.55-8.67h-3.08v-1.32h7.55v1.31h-3.08v8.48h-1.4v-8.48Zm5.96-1.32h1.4v9.79h-1.4v-9.79Zm5.97,1.31h-3.08v-1.32h7.55v1.31h-3.08v8.48h-1.4v-8.48Zm9.58,8.67c-1.02.06-2.01-.32-2.73-1.03-.69-.78-1.05-1.8-.99-2.85v-6.11h1.4v6.03c-.05.71.17,1.4.61,1.96.96.91,2.47.91,3.43,0,.44-.56.65-1.25.6-1.96v-6.03h1.41v6.11c.06,1.04-.3,2.07-.99,2.85-.73.71-1.72,1.08-2.74,1.03h0Zm8.2-8.67h-3.08v-1.32h7.55v1.31h-3.08v8.48h-1.4v-8.48Zm5.96-1.32h6.04v1.32h-4.65v2.67h4.64v1.32h-4.64v3.17h4.64v1.32h-6.04v-9.79Z"/>
      </g>
    </g>
  </g>
  <text class="cls-3" transform="translate(246.5 61.75) scale(.96 1)"><tspan x="0" y="0">GENES FROM S</tspan><tspan class="cls-6" x="525.53" y="0">P</tspan><tspan x="566.16" y="0">ACE</tspan></text>
</svg>